<svg width="1024" height="1024" viewBox="0 0 270.933 270.933" xmlns="http://www.w3.org/2000/svg">
   <path style="mix-blend-mode:normal"
      d="M117.685 270.28c-30.55-4.3-58.637-18.7-80.091-41.062-18.305-19.08-29.639-40.416-35.607-67.034-2.646-11.803-2.65-41.082-.007-53.28C8.063 80.83 20.877 57.734 41.33 37.98 60.464 19.5 82.68 7.664 108.713 2.08c12.88-2.763 40.663-2.776 53.337-.025 28.243 6.13 51.21 18.876 71.191 39.508 18.87 19.485 30.163 41.208 36.311 69.848 1.838 8.56 1.843 39.447.01 48.043-6.395 29.963-19.143 53.393-39.99 73.498-19.49 18.795-40.572 29.93-67.845 35.832-9.179 1.986-34.461 2.845-44.041 1.497z"
      fill="#494949" />
   <path d="M8.827 135.467c150.381-293.033 108.349 291.465 253.28 0" fill="#7cb9d9" stroke="#be554c"
      stroke-width="13.367" stroke-linecap="round" paint-order="fill markers stroke" />
   <path d="M34.878 212.76l.023-.015L237.86 60.46" fill="none" stroke="#537f5b" stroke-width="13.367"
      stroke-linecap="round" />
</svg>
